<?xml version="1.0" encoding="UTF-8" standalone="no"?>
<svg
   xmlns:dc="http://purl.org/dc/elements/1.1/"
   xmlns:cc="http://creativecommons.org/ns#"
   xmlns:rdf="http://www.w3.org/1999/02/22-rdf-syntax-ns#"
   xmlns:svg="http://www.w3.org/2000/svg"
   xmlns="http://www.w3.org/2000/svg"
   viewBox="0 0 151.18134 151.18134"
   height="151.18134"
   width="151.18134"
   xml:space="preserve"
   version="1.1"
   id="svg2"><metadata
     id="metadata8"><rdf:RDF><cc:Work
         rdf:about=""><dc:format>image/svg+xml</dc:format><dc:type
           rdf:resource="http://purl.org/dc/dcmitype/StillImage" /></cc:Work></rdf:RDF></metadata><defs
     id="defs6"><clipPath
       id="clipPath16"
       clipPathUnits="userSpaceOnUse"><path
         id="path18"
         d="m 0,113.386 113.386,0 L 113.386,0 0,0 0,113.386 Z" /></clipPath></defs><g
     transform="matrix(1.3333333,0,0,-1.3333333,0,151.18133)"
     id="g10"><g
       id="g12"><g
         clip-path="url(#clipPath16)"
         id="g14"><g
           transform="translate(100.1353,0.1943)"
           id="g20"><path
             id="path22"
             style="fill:#231f20;fill-opacity:1;fill-rule:evenodd;stroke:none"
             d="m 0,0 -87.077,0 c -7.211,0 -13.058,5.849 -13.058,13.065 l 0,87.069 c 0,7.212 5.847,13.058 13.058,13.058 l 87.077,0 c 7.212,0 13.058,-5.846 13.058,-13.058 l 0,-87.069 C 13.058,5.849 7.212,0 0,0 m -43.539,78.365 c -12.023,0 -21.768,-9.744 -21.768,-21.767 0,-12.021 9.745,-21.77 21.768,-21.77 12.023,0 21.77,9.749 21.77,21.77 0,12.023 -9.747,21.767 -21.77,21.767 M 0,95.781 c 0,2.403 -1.95,4.353 -4.358,4.353 l -13.058,0 c -2.405,0 -4.353,-1.95 -4.353,-4.353 l 0,-13.063 c 0,-2.403 1.948,-4.353 4.353,-4.353 l 13.058,0 c 2.408,0 4.358,1.95 4.358,4.353 l 0,13.063 z m 0,-30.473 -9.854,0 c 0.718,-2.787 1.142,-5.699 1.142,-8.71 0,-19.238 -15.592,-34.829 -34.827,-34.829 -19.234,0 -34.827,15.591 -34.827,34.829 0,3.011 0.426,5.923 1.144,8.71 l -9.855,0 0,-47.893 c 0,-2.401 1.95,-4.35 4.358,-4.35 l 78.361,0 c 2.408,0 4.358,1.949 4.358,4.35 l 0,47.893 z" /></g></g></g></g></svg>