<?xml version="1.0" encoding="UTF-8" standalone="no"?>
<svg
   xmlns:dc="http://purl.org/dc/elements/1.1/"
   xmlns:cc="http://creativecommons.org/ns#"
   xmlns:rdf="http://www.w3.org/1999/02/22-rdf-syntax-ns#"
   xmlns:svg="http://www.w3.org/2000/svg"
   xmlns="http://www.w3.org/2000/svg"
   viewBox="0 0 372.44 375.10666"
   height="375.10666"
   width="372.44"
   xml:space="preserve"
   version="1.1"
   id="svg2"><metadata
     id="metadata8"><rdf:RDF><cc:Work
         rdf:about=""><dc:format>image/svg+xml</dc:format><dc:type
           rdf:resource="http://purl.org/dc/dcmitype/StillImage" /></cc:Work></rdf:RDF></metadata><defs
     id="defs6" /><g
     transform="matrix(1.3333333,0,0,-1.3333333,0,375.10667)"
     id="g10"><g
       transform="scale(0.1)"
       id="g12"><path
         id="path14"
         style="fill:#ffffff;fill-opacity:1;fill-rule:nonzero;stroke:none"
         d="M 2768.57,1401.81 C 2768.57,644.129 2154.34,29.9102 1396.66,29.9102 638.98,29.9102 24.7578,644.129 24.7578,1401.81 c 0,757.69 614.2222,1371.91 1371.9022,1371.91 757.68,0 1371.91,-614.22 1371.91,-1371.91" /><path
         id="path16"
         style="fill:#bd1e24;fill-opacity:1;fill-rule:nonzero;stroke:none"
         d="m 1395.07,2621.51 c -673.621,0 -1219.707,-546.08 -1219.707,-1219.7 0,-516.708 321.485,-958.048 775.211,-1135.771 -10.668,96.5 -20.289,244.52 4.231,349.891 22.148,95.172 143.025,606.27 143.025,606.27 0,0 -36.49,73.05 -36.49,181.07 0,169.59 98.31,296.21 220.7,296.21 104.06,0 154.32,-78.14 154.32,-171.81 0,-104.65 -66.62,-261.11 -101.01,-406.09 -28.73,-121.43 60.88,-220.439 180.61,-220.439 216.8,0 383.43,228.609 383.43,558.549 0,292.03 -209.83,496.22 -509.48,496.22 -347.04,0 -550.738,-260.31 -550.738,-529.31 0,-104.83 40.383,-217.24 90.769,-278.35 9.961,-12.08 11.418,-22.66 8.454,-34.97 -9.254,-38.55 -29.833,-121.401 -33.868,-138.339 -5.324,-22.332 -17.683,-27.062 -40.793,-16.312 -152.343,70.921 -247.578,293.641 -247.578,472.521 0,384.74 279.551,738.09 805.894,738.09 423.1,0 751.92,-301.49 751.92,-704.43 0,-420.37 -265.04,-758.662 -632.9,-758.662 -123.61,0 -239.79,64.211 -279.56,140.063 0,0 -61.16,-232.891 -75.98,-289.941 -27.55,-105.938 -101.88,-238.739 -151.61,-319.75 114.13,-35.34 235.41,-54.399 361.15,-54.399 673.62,0 1219.7,546.07 1219.7,1219.689 0,673.62 -546.08,1219.7 -1219.7,1219.7" /></g></g></svg>